<svg xmlns="http://www.w3.org/2000/svg" viewBox="-24 -56 560 560" width="100%" height="100%" fill="none">
<g id="spirit-haori"><defs><mask id="spirit-haori-m" maskUnits="userSpaceOnUse" x="-40" y="-80" width="620" height="640"><rect x="-40" y="-80" width="620" height="640" fill="#000"/><path d="M80 328 c0 -72 70 -114 164 -110 c92 2 156 44 166 102 c14 68 -52 102 -166 98 c-108 -2 -164 -34 -164 -90 Z" fill="#fff"/><path d="M212 216 c-10 -62 14 -126 66 -158 c54 -34 118 -16 150 30 c36 50 20 118 -20 156 c-44 44 -118 54 -166 18 c-16 -12 -26 -28 -30 -46 Z" fill="#000" stroke="#000" stroke-width="14"/></mask><linearGradient id="haori" x1="0" y1="0" x2="0" y2="1"><stop offset="0" stop-color="#FFFFFF"/><stop offset="0.6" stop-color="#FCE7F3"/><stop offset="1" stop-color="#F9A8D4"/></linearGradient><linearGradient id="haori-sleeve" x1="0" y1="0" x2="0" y2="1"><stop offset="0" stop-color="#FFFFFF" stop-opacity="0.95"/><stop offset="1" stop-color="#F9A8D4" stop-opacity="0.75"/></linearGradient><filter id="petal-glow" x="-50%" y="-50%" width="200%" height="200%"><feGaussianBlur stdDeviation="3" result="blur"/><feMerge><feMergeNode in="blur"/><feMergeNode in="SourceGraphic"/></feMerge></filter></defs>
<g mask="url(#spirit-haori-m)">
<path d="M80 328 c0 -72 70 -114 164 -110 c92 2 156 44 166 102 c14 68 -52 102 -166 98 c-108 -2 -164 -34 -164 -90 Z" fill="url(#haori)"/>
<path d="M84 340 c10 42 60 72 150 72 c74 0 134 -20 162 -54 c-22 56 -86 82 -168 80 c-94 -2 -144 -36 -144 -98 Z" fill="#C084FC" opacity="0.75"/>
<path d="M300 236 C360 240 404 270 410 312 C390 280 352 258 300 252 Z" fill="#FFFFFF" opacity="0.7"/>
<g transform="translate(150 300) rotate(0)"><path d="M0 -12 C7 -6 7 4 0 10 C-7 4 -7 -6 0 -12 Z" fill="#F472B6" opacity="0.75"/></g><g transform="translate(220 350) rotate(40)"><path d="M0 -12 C7 -6 7 4 0 10 C-7 4 -7 -6 0 -12 Z" fill="#F472B6" opacity="0.75"/></g><g transform="translate(130 380) rotate(80)"><path d="M0 -12 C7 -6 7 4 0 10 C-7 4 -7 -6 0 -12 Z" fill="#F472B6" opacity="0.75"/></g><g transform="translate(270 400) rotate(120)"><path d="M0 -12 C7 -6 7 4 0 10 C-7 4 -7 -6 0 -12 Z" fill="#F472B6" opacity="0.75"/></g><g transform="translate(190 270) rotate(160)"><path d="M0 -12 C7 -6 7 4 0 10 C-7 4 -7 -6 0 -12 Z" fill="#F472B6" opacity="0.75"/></g><path d="M80 400 C180 420 300 420 414 396" fill="none" stroke="#A855F7" stroke-width="7" stroke-linecap="round" stroke-linejoin="round" opacity="0.7"/>
<path d="M80 328 c0 -72 70 -114 164 -110 c92 2 156 44 166 102 c14 68 -52 102 -166 98 c-108 -2 -164 -34 -164 -90 Z" fill="none" stroke="#1B132B" stroke-width="14"/>
<path d="M222 236 C250 274 300 292 352 282 C384 276 404 260 414 238" fill="none" stroke="#1B132B" stroke-width="8" stroke-linecap="round" stroke-linejoin="round"/>
</g>

<path d="M246 254 L292 300 L300 420 L276 420 L268 304 Z" fill="#7C3AED" stroke="#1B132B" stroke-width="8" stroke-linejoin="round" stroke-linecap="round"/><path d="M410 244 L360 300 L344 420 L370 420 L380 306 Z" fill="#7C3AED" stroke="#1B132B" stroke-width="8" stroke-linejoin="round" stroke-linecap="round"/><path d="M136 316 C168 276 226 266 274 292 C276 340 264 392 226 430 C190 440 146 430 120 410 C114 380 120 340 136 316 Z" fill="url(#haori-sleeve)" stroke="#1B132B" stroke-width="14" stroke-linejoin="round" stroke-linecap="round"/><path d="M136 400 C170 414 206 416 236 410" fill="none" stroke="#A855F7" stroke-width="5" stroke-linecap="round" stroke-linejoin="round"/><g filter="url(#petal-glow)"><g transform="translate(440 300)"><path d="M0 -10 C6 -5 6 4 0 9 C-6 4 -6 -5 0 -10 Z" fill="#F9A8D4"><animateTransform attribute-name="transform" type="rotate" values="0;360" dur="6s" repeat-count="indefinite" additive="sum"/></path><animateTransform attribute-name="transform" type="translate" values="0 -8; 8 10; 0 -8" dur="4s" repeat-count="indefinite" additive="sum" begin="0s"/><animate attribute-name="opacity" values="0.15;1;0.15" dur="4s" repeat-count="indefinite" calc-mode="spline" key-splines="0.45 0 0.55 1;0.45 0 0.55 1" begin="0s"/></g><g transform="translate(470 220)"><path d="M0 -10 C6 -5 6 4 0 9 C-6 4 -6 -5 0 -10 Z" fill="#F9A8D4"><animateTransform attribute-name="transform" type="rotate" values="0;360" dur="6s" repeat-count="indefinite" additive="sum"/></path><animateTransform attribute-name="transform" type="translate" values="0 -8; 8 10; 0 -8" dur="4s" repeat-count="indefinite" additive="sum" begin="1.2s"/><animate attribute-name="opacity" values="0.15;1;0.15" dur="4s" repeat-count="indefinite" calc-mode="spline" key-splines="0.45 0 0.55 1;0.45 0 0.55 1" begin="1.2s"/></g><g transform="translate(96 230)"><path d="M0 -10 C6 -5 6 4 0 9 C-6 4 -6 -5 0 -10 Z" fill="#F9A8D4"><animateTransform attribute-name="transform" type="rotate" values="0;360" dur="6s" repeat-count="indefinite" additive="sum"/></path><animateTransform attribute-name="transform" type="translate" values="0 -8; 8 10; 0 -8" dur="4s" repeat-count="indefinite" additive="sum" begin="2.1s"/><animate attribute-name="opacity" values="0.15;1;0.15" dur="4s" repeat-count="indefinite" calc-mode="spline" key-splines="0.45 0 0.55 1;0.45 0 0.55 1" begin="2.1s"/></g></g></g>
</svg>
