<svg xmlns="http://www.w3.org/2000/svg" viewBox="-24 -56 560 560" width="100%" height="100%" fill="none">
<defs><mask id="outfit-face-clear" maskUnits="userSpaceOnUse" x="-40" y="-80" width="620" height="640"><rect x="-40" y="-80" width="620" height="640" fill="#fff"/><path d="M212 216 c-10 -62 14 -126 66 -158 c54 -34 118 -16 150 30 c36 50 20 118 -20 156 c-44 44 -118 54 -166 18 c-16 -12 -26 -28 -30 -46 Z" fill="#000" stroke="#000" stroke-width="14"/><path d="M354 186 c34 -2 68 8 110 22 c18 6 18 22 0 32 c-40 20 -84 24 -118 10 c-20 -8 -24 -28 -10 -46 c6 -8 12 -14 18 -18 Z" fill="#000" stroke="#000" stroke-width="20"/></mask></defs><g mask="url(#outfit-face-clear)"><g id="spacesuit"><defs><mask id="spacesuit-m" maskUnits="userSpaceOnUse" x="-40" y="-80" width="620" height="640"><rect x="-40" y="-80" width="620" height="640" fill="#000"/><path d="M80 328 c0 -72 70 -114 164 -110 c92 2 156 44 166 102 c14 68 -52 102 -166 98 c-108 -2 -164 -34 -164 -90 Z" fill="#fff"/><path d="M212 216 c-10 -62 14 -126 66 -158 c54 -34 118 -16 150 30 c36 50 20 118 -20 156 c-44 44 -118 54 -166 18 c-16 -12 -26 -28 -30 -46 Z" fill="#000" stroke="#000" stroke-width="14"/></mask><linearGradient id="suit-white" x1="1" y1="0" x2="0" y2="1"><stop offset="0" stop-color="#FFFFFF"/><stop offset="1" stop-color="#CBD5E1"/></linearGradient></defs>
<g mask="url(#spacesuit-m)">
<path d="M80 328 c0 -72 70 -114 164 -110 c92 2 156 44 166 102 c14 68 -52 102 -166 98 c-108 -2 -164 -34 -164 -90 Z" fill="url(#suit-white)"/>
<path d="M84 340 c10 42 60 72 150 72 c74 0 134 -20 162 -54 c-22 56 -86 82 -168 80 c-94 -2 -144 -36 -144 -98 Z" fill="#94A3B8" opacity="0.75"/>
<path d="M300 236 C360 240 404 270 410 312 C390 280 352 258 300 252 Z" fill="#FFFFFF" opacity="0.7"/>
<path d="M300 304 h80 v56 h-80 Z" fill="#1E293B" stroke="#1B132B" stroke-width="8" stroke-linejoin="round" stroke-linecap="round"/><rect x="310" y="314" width="18" height="12" rx="3" fill="#22C55E"><animate attributeName="opacity" values="1;0.25;1" dur="1.05s" begin="0s" repeatCount="indefinite"/></rect><rect x="334" y="314" width="18" height="12" rx="3" fill="#F43F5E"><animate attributeName="opacity" values="1;0.25;1" dur="1.05s" begin="0.35s" repeatCount="indefinite"/></rect><rect x="358" y="314" width="14" height="12" rx="3" fill="#38BDF8"><animate attributeName="opacity" values="1;0.25;1" dur="1.05s" begin="0.7s" repeatCount="indefinite"/></rect><path d="M312 340 H370" stroke="#38BDF8" stroke-width="4" stroke-linecap="round" stroke-dasharray="10 6"><animate attributeName="stroke-dashoffset" values="0;-32" dur="0.8s" repeatCount="indefinite" calcMode="linear"/></path><linearGradient id="suit-sweep" x1="0" y1="0" x2="1" y2="0"><stop offset="0" stop-color="#FFFFFF" stop-opacity="0"/><stop offset="0.5" stop-color="#FFFFFF" stop-opacity="0.6"/><stop offset="1" stop-color="#FFFFFF" stop-opacity="0"/></linearGradient><rect x="-20" y="200" width="40" height="260" fill="url(#suit-sweep)" transform="skewX(-22)"><animateTransform attributeName="transform" type="translate" values="0 0;540 0;540 0" keyTimes="0;0.45;1" dur="3.4s" begin="0s" repeatCount="indefinite" additive="sum"/></rect><path d="M100 360 C180 380 300 384 414 360 L412 376 C300 400 180 396 100 376 Z" fill="#38BDF8" opacity="0.85"/><path d="M150 290 C176 310 200 340 210 380" fill="none" stroke="#94A3B8" stroke-width="10" stroke-linecap="round" stroke-linejoin="round"/><path d="M150 290 C176 310 200 340 210 380" fill="none" stroke="#E2E8F0" stroke-width="5" stroke-linecap="round" stroke-linejoin="round"/>
<path d="M80 328 c0 -72 70 -114 164 -110 c92 2 156 44 166 102 c14 68 -52 102 -166 98 c-108 -2 -164 -34 -164 -90 Z" fill="none" stroke="#1B132B" stroke-width="14"/>
<path d="M222 236 C250 274 300 292 352 282 C384 276 404 260 414 238" fill="none" stroke="#1B132B" stroke-width="8" stroke-linecap="round" stroke-linejoin="round"/>
</g>
<path d="M136 316 c32 -40 90 -50 138 -24 c-14 50 -76 78 -132 58 C122 352 120 330 136 316 Z" fill="#F1F5F9" stroke="#1B132B" stroke-width="8" stroke-linejoin="round" stroke-linecap="round"/>
<path d="M226 246 C254 286 306 300 354 292 C386 286 408 270 418 246 L420 228 C404 262 370 280 340 282 C290 286 248 266 228 228 Z" fill="#94A3B8" stroke="#1B132B" stroke-width="8" stroke-linejoin="round" stroke-linecap="round"/><path d="M150 330 a16 16 0 1 0 32 0 a16 16 0 1 0 -32 0 Z" fill="#38BDF8" stroke="#1B132B" stroke-width="4" stroke-linejoin="round" stroke-linecap="round"/></g></g>
</svg>
