<svg xmlns="http://www.w3.org/2000/svg" viewBox="-24 -56 560 560" width="100%" height="100%" fill="none">
<g id="sleepy"><clipPath id="lid-320"><path d="M278 138 a42 50 0 1 0 84 0 a42 50 0 1 0 -84 0 Z"/></clipPath><g clip-path="url(#lid-320)"><rect x="274" y="84" width="92" height="56" fill="#E4DAF0"/></g><path d="M282 140 Q320 146 358 140" fill="none" stroke="#1B132B" stroke-width="8" stroke-linecap="round" stroke-linejoin="round"/>
<clipPath id="lid-382"><path d="M350 144 a32 42 0 1 0 64 0 a32 42 0 1 0 -64 0 Z"/></clipPath><g clip-path="url(#lid-382)"><rect x="346" y="98" width="72" height="50.19999999999999" fill="#E4DAF0"/></g><path d="M354 148.2 Q382 154.2 410 148.2" fill="none" stroke="#1B132B" stroke-width="8" stroke-linecap="round" stroke-linejoin="round"/>
<path d="M290 150 l-6 8 M304 156 l-4 9 M318 158 v9" fill="none" stroke="#1B132B" stroke-width="4" stroke-linecap="round" stroke-linejoin="round"/>
<g><path d="M440 70 h22 l-22 24 h22" fill="none" stroke="#B99AFF" stroke-width="5" stroke-linejoin="round" stroke-linecap="round"/><path d="M470 36 h14 l-14 16 h14" fill="none" stroke="#B99AFF" stroke-width="4" stroke-linejoin="round" stroke-linecap="round"/><animateTransform attribute-name="transform" type="translate" values="0 4; 0 -6; 0 4" dur="3s" repeat-count="indefinite" additive="sum"/><animate attribute-name="opacity" values="0.4;1;0.4" dur="3s" repeat-count="indefinite" calc-mode="spline" key-splines="0.45 0 0.55 1;0.45 0 0.55 1"/></g></g>
</svg>
