<svg xmlns="http://www.w3.org/2000/svg" viewBox="-24 -56 560 560" width="100%" height="100%" fill="none">
<g id="dso-bone-bandit"><ellipse cx="446" cy="436" rx="40.8" ry="9" fill="#100A20" opacity="0.26"/>
<g transform="translate(446 436) scale(1.2)"><defs><filter id="dso-skull-glow" x="-50%" y="-50%" width="200%" height="200%"><feGaussianBlur stdDeviation="4" result="blur"/><feMerge><feMergeNode in="blur"/><feMergeNode in="SourceGraphic"/></feMerge></filter><radialGradient id="dso-skull-aura" cx="0.5" cy="0.5" r="0.5"><stop offset="0" stop-color="#F97316" stop-opacity="0.45"/><stop offset="1" stop-color="#F97316" stop-opacity="0"/></radialGradient></defs><g><animateTransform attributeName="transform" type="translate" values="0 0; 0 -10; 0 0; 0 0" dur="1.4s" repeatCount="indefinite" additive="sum" keyTimes="0;0.3;0.6;1"/><ellipse cx="0" cy="-60" rx="56" ry="52" fill="url(#dso-skull-aura)"><animate attributeName="opacity" values="0.5;1;0.5" dur="1.4s" repeatCount="indefinite" calcMode="spline" keySplines="0.45 0 0.55 1;0.45 0 0.55 1"/></ellipse><path d="M-18 -6 L-22 0 M18 -6 L22 0" fill="none" stroke="#F5EBDD" stroke-width="8" stroke-linecap="round" stroke-linejoin="round"/><path d="M-18 -6 L-22 0 M18 -6 L22 0" fill="none" stroke="#1B132B" stroke-width="2" stroke-linecap="round" stroke-linejoin="round"/><g transform="translate(-40 -86)"><g><animateTransform attributeName="transform" type="rotate" values="-8;8;-8" dur="2s" repeatCount="indefinite" additive="sum" begin="0s" calcMode="spline" keyTimes="0;0.5;1" keySplines="0.45 0 0.55 1;0.45 0 0.55 1"/><g transform="translate(40 86)"><path d="M-30 -84 C-54 -84 -70 -100 -66 -118 C-58 -104 -46 -98 -30 -98 Z" fill="#F5EBDD" stroke="#1B132B" stroke-width="8" stroke-linejoin="round" stroke-linecap="round"/></g></g></g><g transform="translate(40 -86)"><g><animateTransform attributeName="transform" type="rotate" values="-8;8;-8" dur="2s" repeatCount="indefinite" additive="sum" begin="0.3s" calcMode="spline" keyTimes="0;0.5;1" keySplines="0.45 0 0.55 1;0.45 0 0.55 1"/><g transform="translate(-40 86)"><path d="M30 -84 C54 -84 70 -100 66 -118 C58 -104 46 -98 30 -98 Z" fill="#F5EBDD" stroke="#1B132B" stroke-width="8" stroke-linejoin="round" stroke-linecap="round"/></g></g></g><path d="M-34 -92 C-36 -118 -18 -126 0 -126 C18 -126 36 -118 34 -92 C34 -66 20 -44 12 -26 C8 -18 -8 -18 -12 -26 C-20 -44 -34 -66 -34 -92 Z" fill="#F5EBDD" stroke="#1B132B" stroke-width="14" stroke-linejoin="round" stroke-linecap="round"/><path d="M10 -122 C26 -116 32 -102 30 -88 C24 -100 18 -110 6 -116 Z" fill="#FFFFFF" opacity="0.9"/><path d="M-34 -92 C-34 -70 -22 -48 -12 -30 C-22 -46 -30 -66 -28 -92 Z" fill="#D6C4A8" opacity="0.9"/><g filter="url(#dso-skull-glow)"><g transform="translate(-14 -88)"><g><animateTransform attributeName="transform" type="scale" values="1 1;1 1;1 0.08;1 1" keyTimes="0;0.9;0.95;1" dur="3s" begin="0s" repeatCount="indefinite"/><g transform="translate(14 88)"><ellipse cx="-14" cy="-88" rx="9" ry="10" fill="#1B132B"/><circle cx="-14" cy="-87" r="4" fill="#FDE047"><animate attributeName="fill" values="#FDE047;#F97316;#FDE047" dur="1.2s" repeatCount="indefinite" calcMode="spline" keySplines="0.45 0 0.55 1;0.45 0 0.55 1"/></circle></g></g></g><g transform="translate(14 -88)"><g><animateTransform attributeName="transform" type="scale" values="1 1;1 1;1 0.08;1 1" keyTimes="0;0.9;0.95;1" dur="3s" begin="0s" repeatCount="indefinite"/><g transform="translate(-14 88)"><ellipse cx="14" cy="-88" rx="9" ry="10" fill="#1B132B"/><circle cx="14" cy="-87" r="4" fill="#FDE047"><animate attributeName="fill" values="#FDE047;#F97316;#FDE047" dur="1.2s" repeatCount="indefinite" calcMode="spline" keySplines="0.45 0 0.55 1;0.45 0 0.55 1" begin="0.2s"/></circle></g></g></g></g><circle cx="-4" cy="-56" r="3" fill="#1B132B"/><circle cx="4" cy="-56" r="3" fill="#1B132B"/><path d="M-10 -40 h20 M-6 -44 v8 M0 -44 v8 M6 -44 v8" fill="none" stroke="#1B132B" stroke-width="2.5" stroke-linecap="round" stroke-linejoin="round"/><g transform="translate(0 -36)"><g><animateTransform attributeName="transform" type="rotate" values="-6;6;-6" dur="1.6s" repeatCount="indefinite" additive="sum" begin="0s" calcMode="spline" keyTimes="0;0.5;1" keySplines="0.45 0 0.55 1;0.45 0 0.55 1"/><g transform="translate(0 36)"><path d="M-24 -40 C-10 -32 10 -32 24 -40 L16 -24 C6 -18 -6 -18 -16 -24 Z" fill="#DC2626" stroke="#1B132B" stroke-width="4" stroke-linejoin="round" stroke-linecap="round"/><circle cx="-6" cy="-30" r="2" fill="#FFFFFF"/><circle cx="8" cy="-28" r="2" fill="#FFFFFF"/></g></g></g><path d="M-20 -124 C-20 -142 20 -142 20 -124 Z" fill="#2A2233" stroke="#1B132B" stroke-width="5" stroke-linejoin="round" stroke-linecap="round"/><path d="M-34 -122 C-12 -128 12 -128 34 -122 C20 -118 -20 -118 -34 -122 Z" fill="#1F1828" stroke="#1B132B" stroke-width="4" stroke-linejoin="round" stroke-linecap="round"/><path d="M-18 -127 H18" fill="none" stroke="#D4A72C" stroke-width="3" stroke-linecap="round" stroke-linejoin="round"/></g><g filter="url(#dso-skull-glow)"><g><circle cx="18.5" cy="-87.7" r="3.2" fill="#FDE047"/><animateTransform attributeName="transform" type="translate" values="0 0;6.2 -50" dur="2.31s" begin="-1.86s" repeatCount="indefinite"/><animate attributeName="opacity" values="0;1;1;0" keyTimes="0;0.2;0.7;1" dur="2.31s" begin="-1.86s" repeatCount="indefinite"/></g><g><circle cx="-21.1" cy="-97.6" r="3.1" fill="#F97316"/><animateTransform attributeName="transform" type="translate" values="0 0;-7.0 -50" dur="2.21s" begin="-1.24s" repeatCount="indefinite"/><animate attributeName="opacity" values="0;1;1;0" keyTimes="0;0.2;0.7;1" dur="2.21s" begin="-1.24s" repeatCount="indefinite"/></g><g><circle cx="-7.9" cy="-91.0" r="3.4" fill="#FDE047"/><animateTransform attributeName="transform" type="translate" values="0 0;-2.6 -50" dur="2.43s" begin="-1.76s" repeatCount="indefinite"/><animate attributeName="opacity" values="0;1;1;0" keyTimes="0;0.2;0.7;1" dur="2.43s" begin="-1.76s" repeatCount="indefinite"/></g><g><circle cx="9.2" cy="-82.6" r="3.5" fill="#F97316"/><animateTransform attributeName="transform" type="translate" values="0 0;3.1 -50" dur="2.49s" begin="-2.33s" repeatCount="indefinite"/><animate attributeName="opacity" values="0;1;1;0" keyTimes="0;0.2;0.7;1" dur="2.49s" begin="-2.33s" repeatCount="indefinite"/></g><g><circle cx="21.6" cy="-89.4" r="2.7" fill="#FDE047"/><animateTransform attributeName="transform" type="translate" values="0 0;7.2 -50" dur="1.96s" begin="-1.50s" repeatCount="indefinite"/><animate attributeName="opacity" values="0;1;1;0" keyTimes="0;0.2;0.7;1" dur="1.96s" begin="-1.50s" repeatCount="indefinite"/></g></g></g></g>
</svg>
